{"glyphs":{"0":{"ha":875,"x_min":75,"x_max":799,"o":"m 536 954 q 429 974 494 974 q 339 958 372 974 q 199 821 250 917 q 149 613 149 725 q 204 401 149 496 q 262 325 236 350 q 333 278 288 300 q 440 251 386 251 q 639 354 556 251 q 722 610 722 457 q 671 819 722 724 q 536 954 619 914 m 349 1042 q 431 1050 374 1050 l 450 1050 q 674 940 578 1044 q 799 610 799 806 q 739 369 799 481 q 572 206 679 258 q 516 185 538 189 q 439 181 494 181 q 365 185 388 181 q 308 204 342 189 q 177 313 236 239 q 90 482 118 388 q 75 618 75 528 q 90 756 75 708 q 349 1042 157 978 z "},"1":{"ha":426,"x_min":78,"x_max":350,"o":"m 189 1003 q 321 1085 296 1085 q 339 1079 332 1085 q 350 1050 350 1072 q 329 893 350 1026 q 314 806 322 854 q 303 745 306 757 q 298 699 301 733 q 294 633 294 665 q 290 536 293 601 q 289 449 289 501 q 306 264 289 365 q 319 153 319 179 q 314 129 319 135 q 290 117 303 117 q 260 136 272 117 q 215 492 215 204 q 239 821 215 671 q 260 954 260 951 q 258 956 260 956 q 192 911 251 956 q 106 865 129 865 l 101 865 q 82 872 86 867 q 78 893 78 878 q 97 928 78 910 q 189 1003 115 947 z "},"2":{"ha":772,"x_min":78,"x_max":694,"o":"m 163 918 q 192 831 163 914 q 222 743 222 749 q 211 720 222 729 q 183 711 200 711 l 178 711 q 154 733 165 713 q 117 821 143 753 q 78 943 78 921 q 138 994 78 960 q 272 1057 197 1028 q 396 1085 347 1085 q 525 1035 461 1085 q 599 951 554 1011 q 643 875 643 890 q 539 735 643 860 q 301 426 379 543 q 196 218 222 308 l 181 169 l 424 167 q 574 164 525 165 q 653 158 622 163 q 689 146 683 153 q 694 125 694 139 q 653 95 694 100 q 403 90 613 90 l 367 90 q 143 96 185 90 q 101 129 101 101 q 104 157 101 135 q 142 285 110 204 q 210 426 174 365 q 479 778 285 549 l 564 878 l 529 919 q 460 986 490 967 q 390 1008 424 1008 q 244 964 342 1008 q 163 918 163 926 z "},"3":{"ha":796,"x_min":78,"x_max":719,"o":"m 307 1057 q 365 1068 336 1068 q 429 1057 394 1068 q 586 966 492 1039 q 681 864 681 893 q 560 725 681 839 q 440 603 440 611 l 442 601 l 564 565 q 692 519 676 535 q 715 433 708 507 q 719 371 719 400 q 694 246 719 294 q 633 180 676 213 q 536 128 589 147 q 463 107 490 111 q 371 103 436 103 q 281 106 304 103 q 229 125 257 110 q 147 183 189 146 q 106 236 106 221 q 118 265 106 250 q 143 279 131 279 q 192 244 154 279 q 271 190 235 204 q 368 176 307 176 q 521 202 450 176 q 622 271 592 228 q 646 375 646 301 q 643 419 646 389 l 638 467 l 497 507 q 352 555 385 540 q 319 588 319 569 q 411 689 319 604 q 549 818 436 711 l 592 863 l 550 899 q 376 992 440 992 q 186 901 306 992 q 110 856 125 856 q 90 865 100 856 q 78 889 78 878 q 150 967 78 913 q 307 1057 246 1036 z "},"4":{"ha":953,"x_min":78,"x_max":875,"o":"m 454 821 q 451 967 454 967 q 354 846 447 967 q 233 693 289 758 q 208 658 204 663 l 211 658 q 267 665 225 658 q 388 675 338 675 l 453 675 l 454 821 m 440 1081 q 489 1113 465 1113 q 519 1104 515 1113 q 524 885 524 1097 l 524 675 l 543 675 q 714 663 583 675 q 857 647 844 651 q 875 625 875 642 q 874 618 875 622 q 874 613 874 614 l 871 585 l 815 585 q 642 592 749 585 l 524 600 l 524 368 q 510 125 524 136 q 489 118 500 118 q 453 140 458 118 l 453 150 q 452 179 453 161 q 451 217 451 197 q 452 292 451 236 q 453 382 453 349 l 457 607 l 381 603 q 213 579 310 599 q 110 564 128 564 q 78 583 78 564 q 112 652 78 604 q 246 831 146 700 q 333 942 285 881 q 408 1038 381 1003 q 440 1081 435 1074 z "},"5":{"ha":793,"x_min":78,"x_max":718,"o":"m 286 1060 q 324 1069 303 1069 q 433 1053 350 1069 q 589 1031 517 1036 q 685 990 685 1022 q 679 969 685 983 q 651 950 671 950 q 629 952 646 950 q 601 954 613 954 q 463 972 540 958 q 332 990 356 990 q 300 979 314 990 q 260 899 286 967 q 214 753 235 831 q 204 717 210 738 q 195 686 199 697 q 192 671 192 675 q 285 654 192 660 q 500 629 426 646 q 624 578 574 613 q 693 492 668 547 q 718 374 718 438 q 681 226 718 294 q 460 118 625 118 q 390 122 428 118 q 160 192 243 140 q 78 318 78 244 q 88 358 78 343 q 110 374 97 374 q 147 328 136 374 q 364 203 169 238 q 463 193 417 193 q 631 300 600 193 q 643 376 643 340 q 609 485 643 439 q 514 549 575 531 q 219 581 400 581 q 118 594 133 581 q 101 618 101 611 q 140 770 101 636 q 197 946 179 904 q 286 1060 232 1029 z "},"6":{"ha":776,"x_min":76,"x_max":704,"o":"m 529 554 q 379 563 490 563 q 256 556 290 563 q 208 539 231 550 q 186 521 186 528 q 202 415 186 497 q 228 304 218 333 q 283 200 257 224 q 379 176 310 176 q 398 177 385 176 q 419 178 411 178 q 528 199 504 182 q 581 277 554 218 q 622 401 608 336 q 632 471 632 453 q 610 526 632 510 q 529 554 588 543 m 407 1060 q 464 1063 440 1063 l 482 1063 q 583 1037 518 1058 q 675 1000 649 1015 l 704 983 l 699 900 q 686 814 694 833 q 654 794 678 794 q 629 806 635 794 q 624 858 624 818 l 624 879 l 625 944 l 571 964 q 449 990 500 990 q 324 933 381 990 q 194 656 224 833 q 192 629 192 631 q 197 617 192 617 l 199 617 q 201 618 200 618 q 389 639 261 639 q 410 638 396 639 q 431 638 424 638 q 606 611 550 631 q 688 546 661 592 q 703 468 703 521 q 668 290 703 388 q 585 150 633 193 q 511 111 556 126 q 401 99 469 99 q 300 110 342 99 q 135 360 182 139 q 110 408 124 408 q 76 457 76 408 q 100 535 76 494 q 118 614 118 563 q 135 731 118 667 q 244 956 169 865 q 407 1060 318 1046 z "},"7":{"ha":625,"x_min":78,"x_max":546,"o":"m 86 1042 q 110 1058 94 1054 q 182 1061 125 1061 q 401 1056 251 1061 q 514 1049 490 1053 q 544 1033 538 1044 q 546 1025 546 1031 q 493 879 546 1000 q 432 738 432 742 q 417 697 432 733 q 333 440 363 578 q 322 321 322 386 q 324 251 322 279 q 328 161 328 185 q 324 134 328 140 q 311 125 321 128 q 289 121 299 121 q 260 149 268 121 q 247 256 251 178 q 246 307 246 274 q 278 533 246 415 q 394 839 311 650 l 457 983 l 156 983 l 163 928 q 164 897 164 917 q 156 857 164 868 q 126 846 147 846 q 99 863 107 846 q 83 944 92 879 q 78 1006 78 982 q 86 1042 78 1028 z "},"8":{"ha":726,"x_min":75,"x_max":650,"o":"m 446 626 q 375 640 414 640 q 207 564 272 640 q 165 488 183 535 q 147 408 147 442 q 189 276 147 335 q 297 197 231 217 q 360 188 326 188 q 515 267 447 188 q 575 424 575 335 q 541 546 575 490 q 446 626 507 601 m 444 956 q 411 983 424 976 q 365 990 399 989 q 353 991 361 990 q 342 992 344 992 q 288 976 311 992 q 233 878 233 943 q 294 776 233 808 q 353 763 322 763 q 450 811 408 763 q 474 882 474 840 q 468 923 474 910 q 444 956 463 936 m 272 1049 q 360 1069 317 1069 q 494 1014 438 1069 q 550 882 550 958 q 529 796 550 839 q 476 732 507 750 l 449 713 l 504 681 q 613 571 575 640 q 650 422 650 501 q 556 197 650 290 q 364 118 481 124 q 344 117 356 118 q 328 117 332 117 q 243 138 290 117 q 120 246 165 172 q 75 407 75 319 q 106 544 75 479 q 166 624 122 579 q 240 683 210 669 l 268 697 l 233 726 q 158 878 158 786 q 172 946 158 914 q 213 1009 192 988 q 272 1049 233 1031 z "},"9":{"ha":564,"x_min":78,"x_max":492,"o":"m 349 990 q 286 1010 321 1010 q 192 971 233 1010 q 151 878 151 932 q 153 861 151 867 q 199 777 160 810 q 286 744 238 744 q 344 757 315 744 q 415 867 408 788 l 415 875 q 349 990 415 944 m 229 1079 q 276 1085 250 1085 q 374 1062 326 1085 q 450 1001 422 1039 q 475 965 469 974 q 486 930 481 956 q 492 864 492 904 q 478 576 492 819 q 447 169 457 200 q 429 149 443 156 q 396 150 408 139 q 383 217 383 161 q 396 479 383 272 q 407 688 407 674 l 406 697 q 372 686 401 701 q 289 669 342 669 q 185 692 224 669 q 106 771 135 721 q 78 878 78 821 q 113 994 78 942 q 164 1047 131 1022 q 229 1079 197 1071 z "},"\u0000":{"ha":611,"x_min":0,"x_max":0,"o":""},"\r":{"ha":611,"x_min":0,"x_max":0,"o":""}," ":{"ha":611,"x_min":0,"x_max":0,"o":""},"!":{"ha":403,"x_min":76,"x_max":326,"o":"m 133 214 q 142 231 133 214 q 169 258 151 249 q 211 268 188 268 q 281 240 257 268 q 300 189 300 217 q 288 138 300 164 q 210 92 269 92 q 186 93 194 92 q 115 147 128 97 q 115 151 115 149 q 114 156 114 154 q 133 214 114 179 m 78 1038 q 106 1053 86 1053 q 225 993 124 1053 q 326 917 326 933 q 288 615 326 869 q 239 350 249 361 q 215 340 231 340 q 181 360 189 340 q 121 700 171 382 q 76 1025 76 968 q 78 1038 76 1036 z "},"\"":{"ha":660,"x_min":76,"x_max":585,"o":"m 92 1026 q 135 1033 103 1033 q 260 1008 222 1033 q 282 971 282 993 q 279 933 282 967 q 269 731 275 885 q 246 479 263 501 q 222 468 238 468 q 197 479 208 468 q 133 731 190 489 q 76 997 76 974 q 92 1026 76 1017 m 403 1038 q 432 1044 411 1044 q 493 1039 454 1044 q 579 1017 567 1029 q 585 992 585 1011 q 558 742 585 965 q 515 465 526 482 q 488 451 504 451 q 464 463 472 451 q 422 718 457 471 q 386 1003 386 965 q 403 1038 386 1025 z "},"#":{"ha":1167,"x_min":76,"x_max":1089,"o":"m 656 589 l 650 665 l 438 665 l 438 494 l 543 494 q 657 503 653 494 q 658 522 658 506 q 656 589 658 536 m 665 1047 q 685 1060 678 1060 q 710 1047 693 1060 q 726 1015 724 1038 q 729 889 729 993 l 729 743 l 879 743 q 1010 741 988 743 q 1039 726 1033 739 q 1039 692 1049 710 q 1013 677 1033 679 q 899 675 993 675 l 849 675 q 748 667 767 675 q 729 624 729 660 q 730 603 729 618 q 731 581 731 589 l 733 499 l 897 501 l 1061 506 l 1076 485 q 1089 458 1089 465 q 1076 439 1089 451 q 897 425 1063 425 l 729 425 l 728 288 q 723 172 726 197 q 710 139 719 146 q 681 139 694 129 q 666 172 669 146 q 661 285 663 197 l 657 421 l 442 421 l 444 296 q 446 226 446 267 q 433 156 446 168 q 403 142 419 142 q 379 153 388 142 q 367 293 369 165 l 364 421 l 239 418 l 188 418 q 98 425 119 418 q 76 454 76 432 q 101 488 76 482 q 233 494 125 494 l 369 494 q 367 578 369 522 q 364 661 364 633 l 232 665 q 123 671 149 667 q 90 686 97 675 q 90 715 81 700 q 210 732 100 731 q 247 732 225 732 q 278 733 269 732 q 303 734 288 733 q 323 736 318 735 q 337 740 328 738 q 347 747 346 742 q 353 757 349 751 q 358 772 357 763 q 359 790 358 781 q 360 814 360 799 l 360 875 q 363 988 360 965 q 376 1022 365 1011 q 394 1033 388 1033 q 415 1024 401 1033 q 434 993 431 1013 q 438 876 438 974 l 438 743 l 651 743 l 651 889 q 665 1047 651 1033 z "},"$":{"ha":593,"x_min":75,"x_max":518,"o":"m 410 581 q 367 597 396 597 l 340 597 l 344 440 q 353 276 347 285 q 357 275 354 275 q 401 301 369 275 q 444 347 433 328 q 457 415 457 375 q 441 508 457 453 q 410 581 425 563 m 258 771 q 253 872 257 846 q 236 897 249 897 q 201 881 228 897 q 139 738 139 843 q 154 667 139 685 q 217 649 169 649 l 261 649 l 258 771 m 251 1022 q 261 1093 251 1083 q 282 1103 271 1103 q 313 1089 297 1103 q 329 1022 329 1076 l 329 968 l 374 965 q 450 940 424 961 q 489 875 476 919 q 497 829 497 846 q 465 799 497 799 q 447 807 453 799 q 435 842 440 815 q 415 890 425 881 q 367 904 404 900 l 326 908 l 331 836 q 338 711 338 739 l 338 657 l 376 657 q 444 631 413 657 q 497 535 476 603 q 518 404 518 468 q 504 325 518 354 q 453 263 492 297 q 383 217 414 229 q 358 201 361 210 q 354 153 354 193 q 351 107 354 118 q 336 89 347 96 q 297 92 318 81 q 280 108 283 99 q 276 146 276 118 l 276 190 l 243 196 q 115 299 175 204 q 82 369 82 349 q 106 389 82 386 l 111 389 q 133 378 122 389 q 164 335 143 368 q 265 253 218 253 q 278 279 278 253 q 275 325 278 283 q 268 492 268 422 l 268 589 l 221 589 q 75 724 75 589 q 79 774 75 747 q 214 951 104 922 l 251 961 l 251 1022 z "},"%":{"ha":833,"x_min":75,"x_max":754,"o":"m 503 489 q 607 563 604 563 q 632 550 619 563 q 644 525 644 538 q 606 415 644 503 q 554 321 567 328 q 540 318 549 318 q 492 331 525 318 q 403 389 403 364 q 503 489 403 415 m 169 863 q 190 871 186 871 q 256 829 204 871 q 308 765 308 786 q 219 653 308 743 q 107 563 129 563 q 75 592 75 563 q 99 683 75 615 q 142 813 129 769 q 169 863 156 856 m 692 1021 q 715 1035 704 1035 q 739 1026 725 1035 q 754 1007 754 1018 q 705 910 754 985 q 500 621 656 836 q 279 307 290 326 q 201 194 264 278 q 126 104 138 111 q 94 111 111 94 q 76 139 76 129 q 165 274 76 151 q 263 413 247 388 q 475 711 272 431 q 678 1001 678 994 q 692 1021 678 1010 z "},"&":{"ha":821,"x_min":78,"x_max":743,"o":"m 499 322 q 392 461 454 378 l 317 563 l 238 431 q 154 268 160 300 q 153 253 153 263 q 160 234 153 242 q 196 207 168 226 q 204 201 201 203 q 329 149 283 149 q 419 179 368 149 q 492 232 456 200 q 529 274 529 264 q 499 322 529 285 m 401 965 q 354 983 368 983 q 308 952 335 983 q 278 892 282 921 q 276 871 276 886 q 308 729 276 793 q 319 718 315 718 q 378 806 329 718 q 435 925 435 903 q 401 965 435 944 m 311 1049 q 356 1060 336 1060 q 435 1033 383 1060 q 500 978 489 1007 q 511 931 511 951 q 428 743 511 885 q 367 629 367 642 q 460 492 367 619 q 561 365 554 365 q 564 410 564 365 l 564 440 l 564 463 q 568 526 564 519 q 594 536 574 536 q 622 526 614 536 q 639 403 639 506 q 633 332 639 356 l 625 286 l 685 214 q 743 122 743 143 q 719 93 743 94 l 711 93 q 681 106 696 93 q 629 165 667 119 l 586 218 l 556 190 q 324 74 428 74 q 249 90 283 74 q 166 139 217 104 q 100 190 115 174 q 78 246 78 215 q 186 486 78 304 l 272 631 l 251 676 q 204 864 204 776 q 311 1049 204 1001 z "},"'":{"ha":460,"x_min":78,"x_max":385,"o":"m 128 935 q 269 939 144 936 l 311 939 q 363 936 351 939 q 381 922 375 933 q 385 897 385 914 q 358 708 385 867 q 352 667 358 703 q 335 569 346 632 q 315 451 324 507 q 263 204 276 217 q 242 194 251 194 q 222 204 233 194 q 143 531 208 215 q 78 906 78 847 q 78 911 78 908 l 79 913 q 128 935 88 932 z "},"(":{"ha":492,"x_min":75,"x_max":414,"o":"m 307 888 q 363 904 340 904 q 392 875 389 904 l 392 865 q 383 844 392 853 q 342 819 374 836 q 200 682 254 772 q 146 494 146 592 q 151 440 146 476 q 219 281 167 351 q 350 167 271 210 q 414 108 414 132 q 399 86 414 97 q 375 76 383 76 q 340 86 369 76 q 214 174 279 111 q 118 300 149 236 q 75 496 75 388 q 119 697 75 604 q 202 802 138 736 q 307 888 267 868 z "},")":{"ha":493,"x_min":78,"x_max":418,"o":"m 88 965 q 111 974 96 974 q 267 872 168 974 q 418 504 418 721 q 286 157 418 303 q 211 86 250 117 q 157 56 172 56 q 134 70 147 56 q 121 96 121 85 q 140 122 121 106 q 344 500 344 283 q 287 722 344 618 q 128 892 229 826 q 78 946 78 924 q 88 965 78 956 z "},"*":{"ha":711,"x_min":78,"x_max":633,"o":"m 131 682 q 156 692 140 692 q 207 651 167 692 q 293 553 247 610 l 325 513 l 331 574 q 344 641 336 625 q 374 657 353 657 q 402 646 394 657 q 410 603 410 635 q 408 563 410 578 l 401 490 l 463 567 q 539 658 517 636 q 578 681 561 681 q 588 679 585 681 q 615 651 615 672 q 604 626 615 640 q 436 396 436 413 q 513 390 436 390 q 633 351 633 390 q 626 329 633 343 q 592 314 619 314 q 540 317 588 314 q 486 319 499 319 q 464 317 464 319 q 489 281 464 311 q 542 194 514 251 q 564 136 564 149 q 558 118 564 132 q 525 100 547 99 q 478 156 504 101 q 429 237 457 196 q 394 279 401 278 q 388 238 388 279 q 391 202 388 210 q 406 192 394 194 q 436 164 436 188 q 418 104 436 147 q 360 33 389 33 q 344 38 353 33 q 318 111 318 51 q 313 175 318 144 l 307 203 l 279 161 q 235 106 251 121 q 199 92 218 92 l 192 92 q 164 118 164 94 q 183 158 164 136 q 249 251 206 181 l 293 322 l 201 322 q 102 330 126 322 q 78 361 78 338 q 103 392 78 385 q 211 400 129 400 l 311 400 l 275 451 q 181 571 240 504 q 122 663 122 638 q 131 682 122 674 z "},"+":{"ha":781,"x_min":78,"x_max":703,"o":"m 340 717 q 358 725 354 725 q 376 717 361 725 q 390 696 388 710 q 393 633 393 682 q 399 513 393 563 l 404 467 l 539 469 l 610 469 q 689 461 679 469 q 703 433 703 450 q 692 410 703 418 q 542 396 679 401 l 401 389 l 401 246 q 395 108 401 135 q 363 82 389 82 q 331 108 336 82 q 325 247 325 133 l 325 392 l 208 390 l 160 390 q 94 396 110 390 q 78 419 78 401 l 78 429 q 103 455 79 449 q 215 465 126 461 l 325 469 l 325 589 q 328 690 325 668 q 340 717 331 711 z "},",":{"ha":560,"x_min":78,"x_max":485,"o":"m 275 367 q 304 390 296 390 q 393 380 325 390 q 471 364 461 369 q 485 343 485 357 q 442 242 485 322 q 316 53 368 111 q 183 -47 264 -6 q 104 -76 128 -76 q 78 -51 78 -76 q 163 156 78 -26 q 275 367 249 338 z "},"-":{"ha":893,"x_min":69,"x_max":824,"o":"m 75 408 q 81 416 76 414 q 103 420 85 418 q 154 423 121 422 q 253 424 188 424 l 443 424 q 756 419 703 421 q 814 407 808 417 q 814 376 824 390 q 755 363 808 365 q 443 358 701 361 l 253 358 q 154 359 188 358 q 103 362 121 360 q 81 366 85 364 q 75 374 76 368 q 75 408 69 392 z "},".":{"ha":442,"x_min":75,"x_max":367,"o":"m 171 407 q 214 415 197 415 q 288 392 239 415 q 351 344 335 368 q 367 269 367 319 q 352 197 367 229 q 315 153 338 164 q 257 143 296 143 q 174 158 208 143 q 108 208 138 174 q 81 246 88 232 q 75 285 75 260 q 171 407 75 379 z "},"/":{"ha":547,"x_min":78,"x_max":469,"o":"m 408 763 q 432 778 421 778 q 456 763 443 778 q 469 738 469 749 q 303 411 469 724 q 128 94 138 99 q 115 92 119 92 q 90 101 103 92 q 78 122 78 110 q 126 235 78 139 q 356 675 175 332 q 408 763 393 747 z "},":":{"ha":329,"x_min":74,"x_max":254,"o":"m 135 272 q 169 281 151 281 q 231 247 203 281 q 246 200 246 228 q 213 119 246 157 q 136 82 179 82 q 105 94 114 82 q 85 147 96 106 q 78 186 78 178 q 90 224 78 199 q 135 272 107 257 m 100 763 q 157 778 113 778 q 208 768 189 778 q 243 731 228 758 q 254 701 254 708 q 244 674 254 697 q 226 621 231 642 q 185 585 218 585 q 140 593 167 585 q 92 617 103 604 q 78 665 82 629 q 75 688 76 675 q 74 703 74 700 q 100 763 74 729 z "},";":{"ha":414,"x_min":81,"x_max":339,"o":"m 206 300 q 260 322 226 322 q 317 300 294 322 q 339 232 339 279 q 318 165 339 185 q 285 104 301 150 q 201 -21 249 0 q 165 -28 183 -28 q 107 -12 133 -28 q 81 24 81 3 q 91 53 81 42 q 117 64 101 64 q 149 54 133 64 q 164 49 160 49 q 208 117 183 49 l 225 163 l 204 182 q 182 238 182 201 q 206 300 182 274 m 178 893 q 226 906 206 906 q 285 882 260 906 q 326 801 326 846 q 304 748 326 769 q 246 726 282 726 q 207 733 231 726 q 155 771 174 744 q 136 826 136 797 q 178 893 136 872 z "},"<":{"ha":764,"x_min":76,"x_max":686,"o":"m 489 617 q 644 675 603 669 q 667 663 658 675 q 676 635 676 650 q 644 599 676 614 q 376 489 611 583 l 201 418 l 292 375 q 624 214 561 247 q 686 165 686 181 q 676 136 686 147 q 651 125 667 125 q 372 253 642 125 q 86 393 103 381 q 76 421 76 399 q 88 450 76 443 q 274 528 93 456 q 489 617 447 597 z "},"=":{"ha":625,"x_min":75,"x_max":549,"o":"m 99 378 q 158 383 108 383 q 363 365 275 383 q 467 336 408 356 q 539 306 525 317 q 549 281 549 297 q 536 249 549 258 q 521 243 528 243 q 471 256 508 243 q 208 306 357 297 q 101 315 118 310 q 83 343 83 319 q 99 378 83 369 m 481 597 q 508 603 493 603 q 549 568 549 603 q 475 517 549 531 q 185 506 417 506 q 86 510 92 506 q 75 538 75 517 q 86 567 75 560 q 274 581 99 575 q 481 597 444 585 z "},">":{"ha":815,"x_min":75,"x_max":739,"o":"m 99 610 l 114 619 q 114 619 114 619 q 265 578 118 619 q 570 487 417 533 q 728 438 724 440 q 739 410 739 426 q 724 379 739 388 q 402 247 679 356 q 110 138 125 138 q 85 148 94 138 q 75 169 75 158 q 79 185 75 178 q 209 247 85 194 q 454 350 333 300 q 575 404 575 400 q 458 442 575 407 q 219 512 340 476 q 93 553 99 547 q 83 578 83 563 q 99 610 83 601 z "},"?":{"ha":714,"x_min":78,"x_max":638,"o":"m 294 257 q 340 274 322 274 q 378 265 356 274 q 415 234 401 257 q 429 185 429 211 q 415 143 429 158 q 376 128 401 128 q 303 155 339 128 q 267 217 268 182 q 294 257 267 242 m 243 1047 q 324 1060 283 1060 q 539 993 406 1060 q 624 942 610 958 q 638 878 638 925 q 611 781 638 813 q 494 703 585 749 q 390 636 413 661 q 367 576 367 613 l 367 561 q 382 457 369 501 q 392 400 392 424 q 372 365 392 374 q 360 363 364 363 q 307 447 326 363 q 293 564 293 507 q 310 654 293 621 q 356 709 325 686 q 464 771 386 732 q 532 809 514 796 q 557 840 550 822 q 568 882 568 865 q 485 936 568 894 q 343 981 403 978 q 329 981 338 981 q 317 982 321 982 q 224 957 279 982 l 163 928 l 189 893 q 214 836 214 860 q 199 810 214 817 q 181 804 185 804 q 115 864 160 804 q 78 939 78 915 q 92 967 78 954 q 160 1010 108 983 q 243 1047 213 1038 z "},"@":{"ha":863,"x_min":75,"x_max":786,"o":"m 410 607 q 410 611 410 608 q 411 615 411 614 q 403 628 411 628 q 365 603 390 628 q 315 458 315 553 q 335 364 315 403 q 394 317 357 317 q 414 322 407 317 q 447 366 431 332 q 463 422 463 400 q 450 503 463 443 q 422 571 442 554 q 410 607 406 586 m 414 918 q 511 931 446 928 q 628 906 576 931 q 746 792 714 865 q 786 626 786 696 q 761 501 786 567 q 712 386 725 411 q 675 343 699 361 q 606 313 635 313 q 560 324 589 313 l 521 342 l 501 311 q 452 260 482 281 q 397 240 422 240 q 338 258 372 240 q 288 296 304 275 q 251 375 269 319 q 236 443 236 424 q 242 489 236 450 q 303 642 256 581 q 404 704 350 704 q 436 697 418 704 q 485 688 461 688 l 489 688 l 496 688 q 528 667 522 688 q 540 553 535 646 q 549 449 544 471 q 569 411 554 428 q 603 389 590 389 q 633 408 615 389 q 684 512 650 425 q 718 625 718 599 q 693 718 718 651 q 651 803 668 785 q 579 844 626 828 q 504 860 538 860 q 390 825 451 860 q 265 719 346 800 q 169 606 183 639 q 150 494 150 560 q 160 407 150 458 q 215 284 176 329 q 326 213 254 239 q 486 192 385 192 q 650 213 589 192 q 714 240 710 233 q 733 249 719 249 q 771 226 763 249 q 776 210 776 213 q 764 188 776 203 q 728 158 747 168 q 656 135 708 149 q 488 113 572 113 q 257 163 358 113 q 117 297 156 213 q 75 499 75 388 q 79 549 75 528 q 115 658 90 618 q 211 769 139 699 q 414 918 326 888 z "},"A":{"ha":886,"x_min":118,"x_max":817,"o":"m 751 1086 q 771 1094 767 1094 q 792 1085 778 1094 q 806 1008 803 1078 q 813 586 808 939 l 817 100 l 799 92 q 763 90 778 82 q 748 123 750 96 q 746 283 746 150 q 740 519 746 461 l 735 571 l 647 571 q 501 565 568 571 l 444 560 l 399 494 q 333 393 346 418 q 264 278 326 378 q 194 161 201 179 q 174 136 188 142 q 163 135 171 135 q 132 144 146 135 q 118 167 118 154 q 181 281 118 186 q 269 426 218 338 q 349 549 293 469 q 414 633 404 628 q 581 640 428 640 l 736 640 l 736 860 q 738 1044 736 1008 q 751 1086 740 1079 z "},"B":{"ha":810,"x_min":76,"x_max":733,"o":"m 272 1046 q 336 1051 288 1051 q 435 1040 424 1051 q 443 746 443 1032 l 443 610 l 442 188 l 485 188 q 593 225 546 188 q 660 325 640 263 q 668 375 668 353 q 640 472 668 413 l 619 515 l 636 532 q 658 543 647 543 q 711 483 685 543 q 733 372 733 436 q 728 308 732 326 q 706 256 724 289 q 646 178 679 206 q 565 134 613 151 q 479 115 517 117 q 410 124 442 115 q 376 142 378 132 q 371 660 374 171 l 369 988 l 347 988 q 203 924 264 988 q 142 786 142 861 q 175 697 142 735 q 188 669 188 685 q 171 642 188 653 q 157 638 164 638 q 93 694 124 638 q 76 761 76 726 q 77 777 76 765 q 78 796 78 789 q 272 1046 89 985 z "},"C":{"ha":711,"x_min":76,"x_max":638,"o":"m 514 697 q 547 699 528 707 q 564 681 560 693 q 572 625 568 668 q 579 357 576 567 q 568 146 579 157 q 422 132 561 139 q 178 125 282 125 q 104 128 113 125 q 76 160 76 136 q 89 186 76 174 q 124 199 100 197 q 249 201 147 201 q 449 207 388 201 l 504 213 l 503 450 q 501 585 501 508 q 514 697 501 689 m 460 1022 q 558 1035 494 1035 l 579 1035 q 629 1018 619 1035 q 631 985 638 999 q 554 965 622 968 q 313 804 381 954 q 290 686 290 756 q 306 593 290 628 q 315 554 315 572 q 293 524 315 532 q 283 522 290 522 q 229 601 251 522 q 218 686 218 643 q 243 822 218 760 q 329 944 268 888 q 460 1022 390 1001 z "},"D":{"ha":597,"x_min":69,"x_max":524,"o":"m 253 872 q 282 885 264 885 q 363 857 311 885 q 481 748 439 818 q 524 593 524 678 q 523 583 524 590 q 522 571 522 575 q 392 349 511 431 q 325 321 349 321 q 296 346 303 321 q 294 356 294 350 q 307 377 294 365 q 360 419 319 389 q 446 593 446 481 q 422 697 446 657 q 377 756 400 736 q 304 800 354 776 q 244 853 244 828 q 253 872 244 861 m 85 1099 q 103 1107 96 1107 q 121 1099 110 1107 q 127 1094 125 1096 q 132 1083 129 1092 q 135 1063 135 1075 q 138 1026 136 1051 q 140 968 139 1001 q 141 883 140 935 q 142 765 142 831 q 143 608 143 700 q 143 606 143 607 l 143 404 q 140 104 143 121 q 106 82 133 82 q 78 99 82 82 q 71 600 74 113 q 69 906 69 736 q 72 1061 69 1031 q 85 1099 75 1092 z "},"E":{"ha":703,"x_min":74,"x_max":628,"o":"m 100 1031 q 161 1035 113 1035 q 286 1025 249 1035 q 531 860 435 986 q 628 581 628 733 q 546 319 628 442 q 338 150 464 197 q 293 129 297 135 q 238 116 289 122 q 147 110 188 110 q 122 111 128 110 q 83 125 92 117 q 74 153 74 133 q 82 176 74 169 q 178 183 90 181 q 268 194 264 185 q 282 204 271 204 q 352 234 300 204 q 433 292 404 264 q 517 403 483 339 q 557 526 551 468 l 558 558 l 367 556 q 146 546 175 553 q 121 543 138 543 q 82 575 82 543 q 118 610 82 603 q 329 624 154 618 q 554 633 551 631 q 556 639 556 635 q 549 676 556 651 q 408 890 514 807 q 167 972 301 972 q 100 982 110 972 q 90 1008 90 992 q 100 1031 90 1025 z "},"F":{"ha":683,"x_min":69,"x_max":606,"o":"m 219 1039 q 511 1043 446 1043 q 594 1035 582 1043 q 606 1011 606 1026 q 581 976 606 983 q 349 972 564 972 l 136 972 l 140 560 q 142 318 142 457 q 140 207 142 246 q 135 149 139 168 q 126 126 131 129 q 110 122 121 122 q 88 138 97 122 q 72 585 78 150 q 69 892 69 728 q 78 1026 69 1018 q 219 1039 88 1036 z "},"G":{"ha":714,"x_min":71,"x_max":636,"o":"m 233 529 q 243 553 233 543 q 364 563 253 563 q 460 560 439 563 q 492 546 481 557 q 508 514 508 529 q 499 497 508 503 q 426 493 490 493 q 244 504 258 493 q 233 529 233 513 m 335 1063 q 428 1078 385 1078 q 540 1056 478 1078 q 636 988 636 1019 q 626 968 636 978 q 604 958 617 958 q 539 981 588 958 q 457 1000 496 1000 q 440 999 453 1000 q 419 999 428 999 q 306 972 351 994 q 181 828 217 926 q 144 529 144 729 l 144 503 q 158 232 144 346 q 168 125 168 154 q 167 118 168 122 l 167 114 q 136 94 163 94 q 101 115 108 94 q 82 271 97 128 q 71 508 71 372 q 94 788 71 700 q 181 968 126 904 q 335 1063 236 1032 z "},"H":{"ha":557,"x_min":69,"x_max":482,"o":"m 422 1100 q 447 1113 433 1113 q 471 1103 461 1113 q 482 894 482 1092 q 471 685 482 696 q 304 675 461 675 l 147 675 l 144 392 q 136 103 142 108 q 114 96 129 96 q 78 108 88 96 q 69 401 69 121 q 78 726 69 710 q 110 740 85 738 q 250 743 136 743 l 414 743 l 413 915 l 413 960 q 422 1100 413 1086 z "},"I":{"ha":564,"x_min":75,"x_max":494,"o":"m 203 433 q 203 442 203 433 q 219 468 203 451 q 263 485 236 485 q 324 446 308 485 q 326 431 326 435 q 293 367 326 396 q 268 360 286 360 q 238 376 238 360 q 219 401 238 386 q 203 433 203 415 m 267 981 q 290 992 279 992 q 314 983 300 992 q 346 933 346 967 q 333 902 346 915 q 301 889 321 889 q 263 903 272 889 q 251 940 251 917 q 267 981 251 969 m 93 1103 q 122 1113 101 1113 q 147 1104 140 1113 q 151 974 151 1097 l 151 924 l 150 751 l 308 751 q 442 749 414 751 q 481 736 471 746 q 491 681 489 726 q 494 444 493 636 l 494 364 q 490 158 494 164 q 468 150 483 150 q 436 161 444 150 q 424 422 425 176 l 422 669 l 264 672 q 89 689 106 674 q 75 763 75 703 q 78 897 75 772 q 93 1103 83 1089 z "},"J":{"ha":625,"x_min":74,"x_max":547,"o":"m 97 1056 q 131 1079 106 1079 q 158 1065 144 1079 q 164 1049 164 1060 q 157 1011 164 1032 q 146 928 146 976 q 172 801 146 856 q 222 726 190 764 q 279 674 254 688 q 283 672 281 672 q 364 740 300 672 q 453 853 435 815 q 476 967 472 890 q 483 1037 479 1026 q 503 1050 486 1047 l 511 1050 q 540 1028 533 1050 q 547 947 547 1006 q 518 819 547 874 q 400 676 489 765 q 250 517 290 565 q 189 425 210 469 q 166 360 169 385 q 161 238 163 335 q 153 114 160 136 q 122 90 147 92 q 95 122 103 90 q 86 236 88 153 l 86 246 q 113 431 86 357 q 206 578 140 504 l 236 613 l 188 658 q 74 928 74 765 q 97 1056 74 999 z "},"K":{"ha":882,"x_min":76,"x_max":806,"o":"m 376 603 q 368 647 376 647 l 367 647 q 297 624 358 647 q 236 596 236 601 q 304 574 236 592 l 376 557 l 376 603 m 388 1050 q 417 1060 397 1060 q 443 1050 438 1060 q 454 900 449 1038 l 458 761 l 579 808 q 642 833 606 818 q 701 856 679 847 q 731 868 724 865 q 760 876 750 876 q 782 865 768 876 q 797 840 797 853 q 742 796 797 817 q 458 679 475 696 q 453 647 453 675 q 454 603 453 621 l 458 533 l 621 493 q 793 443 781 453 q 806 417 806 433 q 793 390 806 400 q 778 386 789 386 q 622 419 754 386 q 544 438 586 428 q 481 454 501 449 q 458 460 460 460 q 454 281 454 460 q 452 129 454 164 q 440 86 450 94 q 415 74 428 74 l 390 86 q 378 131 381 94 q 376 292 376 167 l 376 483 l 251 515 q 101 556 126 546 q 76 585 76 565 q 103 619 76 604 q 246 679 131 635 l 376 731 l 376 886 q 388 1050 376 1039 z "},"L":{"ha":789,"x_min":71,"x_max":714,"o":"m 92 593 q 114 604 104 604 q 135 594 121 604 q 149 507 149 586 q 147 381 149 436 l 143 176 l 168 172 q 442 168 189 168 q 648 166 603 168 q 701 154 693 164 q 714 125 714 142 q 700 100 714 108 q 575 96 692 96 q 390 97 461 96 q 82 114 96 100 q 71 224 71 125 q 72 354 71 299 q 78 549 75 511 q 92 593 81 586 z "},"M":{"ha":774,"x_min":69,"x_max":697,"o":"m 69 575 q 75 1082 69 1076 q 108 1085 81 1088 l 133 1082 l 139 997 q 146 789 143 929 l 147 668 l 257 571 q 313 522 283 547 q 361 480 343 496 q 382 461 379 464 q 392 457 386 457 q 519 574 408 457 q 656 700 640 700 q 683 686 669 700 q 697 658 697 672 q 553 500 697 647 q 393 360 413 360 l 390 360 q 263 464 375 364 l 151 563 l 149 321 q 138 67 147 81 q 108 56 129 56 q 79 67 90 56 q 69 575 69 76 z "},"N":{"ha":729,"x_min":75,"x_max":658,"o":"m 75 189 q 96 240 75 219 q 149 261 117 261 q 192 249 172 261 q 224 174 224 226 q 219 147 224 158 q 188 117 213 131 q 142 104 163 104 q 126 107 131 104 q 75 189 75 136 m 581 797 q 599 1065 589 1053 q 624 1078 608 1078 q 651 1058 644 1078 q 658 957 658 1038 q 656 810 658 935 q 621 92 639 108 q 599 83 613 83 q 556 110 567 83 q 333 567 540 146 q 117 1024 117 1008 q 127 1047 117 1038 q 151 1057 138 1057 q 167 1053 158 1057 q 371 660 182 1046 l 561 275 l 567 408 q 581 797 578 700 z "},"O":{"ha":706,"x_min":74,"x_max":633,"o":"m 410 1001 q 346 1018 383 1018 q 276 988 311 1018 q 169 789 208 928 q 150 597 150 722 q 169 407 150 474 q 250 233 200 296 q 356 169 300 169 q 408 185 386 169 q 550 494 519 254 q 556 588 556 535 q 514 843 556 724 q 410 1001 472 963 m 276 1082 q 346 1094 303 1094 q 425 1079 390 1094 q 499 1019 461 1064 q 563 921 538 975 q 633 594 633 771 q 614 415 633 508 q 513 179 585 267 q 354 92 440 92 q 251 126 300 92 q 122 314 169 183 q 74 597 74 444 q 143 929 74 786 q 205 1024 167 981 q 276 1082 243 1068 z "},"P":{"ha":797,"x_min":78,"x_max":728,"o":"m 392 982 q 617 988 611 988 q 710 974 696 988 q 725 531 718 967 q 728 224 728 388 q 719 85 728 93 q 418 67 704 69 q 219 64 232 64 q 113 78 128 64 q 96 103 96 92 q 110 126 96 113 q 159 140 119 138 q 389 142 199 142 l 656 142 l 649 526 q 642 911 643 911 l 635 911 q 371 904 583 911 q 172 900 233 900 q 90 907 100 900 q 78 935 78 917 q 97 967 78 958 q 392 982 115 976 z "},"Q":{"ha":811,"x_min":75,"x_max":742,"o":"m 172 1015 q 443 1022 190 1022 q 665 1019 626 1022 q 714 1006 704 1017 q 728 851 726 990 q 731 700 728 714 q 739 394 733 683 q 742 189 742 203 q 731 86 742 97 q 710 74 718 74 q 685 88 700 74 q 669 156 672 99 q 660 524 667 214 q 647 947 650 943 l 632 947 q 500 944 617 947 l 357 938 l 357 735 q 340 168 356 214 q 307 109 325 124 q 243 92 289 94 q 231 91 239 92 q 219 90 222 90 q 164 102 185 90 q 114 149 143 114 q 75 263 75 193 q 82 326 75 288 q 126 399 94 399 q 154 383 140 399 q 164 361 164 372 q 158 328 164 349 q 151 274 151 297 q 172 194 151 225 q 225 163 193 163 q 247 167 235 163 q 266 181 261 172 q 274 221 271 190 q 282 761 282 285 q 281 836 282 792 q 281 890 281 881 l 279 938 l 228 944 q 167 954 174 950 q 160 976 160 958 q 172 1015 160 1006 z "},"R":{"ha":581,"x_min":69,"x_max":503,"o":"m 206 907 q 249 908 211 908 q 463 896 444 908 q 472 868 472 890 q 463 839 472 849 q 344 829 453 829 q 221 836 265 829 q 186 851 199 840 q 174 876 174 863 q 206 907 174 899 m 69 574 q 79 1067 69 1056 q 104 1078 89 1078 q 128 1068 119 1078 q 143 778 136 1057 l 150 499 l 322 318 q 501 125 497 136 q 503 114 503 121 q 492 91 503 100 q 467 82 482 82 q 419 113 453 83 q 297 235 386 143 l 151 386 l 149 235 q 144 101 147 124 q 126 68 142 78 q 103 60 114 60 q 75 79 83 60 q 69 574 69 93 z "},"S":{"ha":840,"x_min":78,"x_max":768,"o":"m 276 1053 q 361 1060 310 1057 l 369 1060 q 514 1050 425 1060 q 611 1033 603 1040 q 622 1011 622 1025 q 608 982 622 996 q 571 971 594 971 q 503 976 567 971 q 388 982 446 982 q 209 943 263 982 q 154 814 156 904 q 158 764 154 776 q 181 735 163 751 q 277 688 203 717 q 361 654 351 660 q 404 642 386 642 q 464 649 418 642 q 561 657 518 657 q 682 629 638 657 q 750 533 732 596 q 768 319 768 469 l 768 276 q 764 130 767 160 q 750 89 761 100 q 725 74 735 74 q 701 89 717 74 q 690 133 690 100 q 694 232 690 158 q 697 317 697 290 q 672 526 697 474 q 633 569 658 557 q 563 582 608 582 l 554 582 q 463 563 463 581 q 464 556 463 558 q 475 472 475 526 q 460 322 475 410 q 442 188 442 219 l 442 172 q 415 107 442 118 q 400 103 407 103 q 361 142 374 103 q 357 168 357 154 q 371 257 357 193 q 399 464 399 375 q 388 535 399 513 q 349 577 372 563 q 258 614 325 592 q 153 659 185 639 q 101 715 122 679 q 78 817 78 756 q 131 975 79 913 q 276 1053 183 1038 z "},"T":{"ha":896,"x_min":76,"x_max":819,"o":"m 690 672 q 720 695 708 690 q 757 700 732 700 q 806 690 793 700 q 819 649 819 679 q 818 625 819 635 q 799 563 814 582 q 749 539 783 544 q 729 538 742 538 q 674 555 694 538 q 654 599 654 572 q 690 672 654 636 m 506 883 q 511 1099 506 1093 q 529 1104 517 1104 q 565 1092 556 1104 q 579 585 575 1079 q 582 251 582 285 q 581 144 582 181 q 574 88 579 107 q 565 67 569 69 q 547 64 560 64 l 544 64 q 510 101 515 64 q 506 342 506 138 l 506 597 l 308 597 q 140 600 174 597 q 92 614 106 603 q 76 633 76 625 q 82 651 76 640 l 93 675 l 506 675 l 506 883 z "},"U":{"ha":993,"x_min":69,"x_max":919,"o":"m 411 219 q 810 226 769 225 l 844 226 q 888 224 878 226 q 906 210 899 221 q 914 185 914 197 q 890 154 914 161 q 479 147 875 150 l 85 146 l 78 165 q 82 200 69 186 q 135 214 89 211 q 411 219 182 217 m 122 569 q 132 596 122 586 q 472 606 142 606 q 836 600 800 606 q 874 575 871 594 q 876 566 874 572 q 878 557 878 560 q 817 532 878 536 q 506 528 756 528 q 138 538 157 528 q 122 569 122 546 m 122 1025 q 517 1036 133 1036 q 910 1025 899 1036 q 919 1001 919 1015 q 908 976 919 986 q 717 964 900 969 q 354 958 535 958 q 125 967 136 958 q 113 997 113 978 q 122 1025 113 1015 z "},"V":{"ha":1010,"x_min":78,"x_max":932,"o":"m 872 1033 q 899 1043 882 1043 q 931 1028 922 1043 l 931 1026 q 932 1024 932 1025 q 742 546 932 990 q 531 75 542 81 q 514 71 522 71 q 457 140 492 71 q 275 538 422 210 q 115 900 153 810 q 78 1017 78 990 q 96 1035 78 1035 q 101 1034 97 1035 q 108 1033 106 1033 l 136 1031 l 321 621 q 510 211 506 211 q 690 617 517 211 q 872 1033 867 1028 z "},"W":{"ha":1065,"x_min":78,"x_max":989,"o":"m 499 1042 q 529 1060 511 1060 q 556 1046 543 1060 q 704 604 568 1032 q 850 179 840 179 q 893 226 854 179 q 960 286 939 286 q 969 283 964 286 q 989 257 989 275 q 954 182 989 231 q 828 67 872 67 q 800 81 813 67 q 565 789 786 99 q 558 812 561 800 q 551 833 554 824 q 544 850 547 842 q 538 865 540 858 q 533 876 535 871 q 528 882 531 881 l 526 883 q 400 489 521 876 q 265 78 278 96 q 238 57 251 57 q 150 131 214 57 q 79 221 82 213 q 78 228 78 222 q 90 256 78 242 q 115 271 103 271 q 156 240 124 271 q 204 186 189 210 q 221 168 218 167 l 286 378 q 421 806 351 588 q 499 1042 490 1024 z "},"X":{"ha":811,"x_min":76,"x_max":733,"o":"m 618 994 q 671 1053 654 1053 q 702 1036 686 1053 q 714 1008 718 1019 q 575 783 713 1000 q 443 560 443 574 l 590 332 q 733 100 733 113 q 722 74 733 85 q 693 64 710 64 q 655 101 682 64 q 540 274 628 139 q 399 488 401 485 q 379 465 397 489 q 331 394 361 440 q 268 297 300 349 q 132 94 146 100 q 119 92 124 92 q 95 100 107 92 q 83 121 83 108 q 214 350 83 143 l 347 564 l 328 596 q 299 640 324 603 q 261 700 275 678 q 76 1006 76 978 q 90 1026 76 1018 q 117 1035 103 1035 q 136 1026 128 1035 q 260 838 139 1024 q 385 650 382 653 q 388 649 386 649 q 488 788 401 649 q 563 907 517 833 q 618 994 610 981 z "},"Y":{"ha":492,"x_min":79,"x_max":414,"o":"m 93 1074 q 176 1086 106 1086 q 258 1079 247 1086 q 268 813 268 1075 l 268 611 l 267 150 l 328 150 q 394 140 375 150 q 414 108 414 131 q 399 82 414 89 q 339 75 383 75 l 304 75 q 203 90 221 76 q 190 204 190 100 q 194 556 190 290 l 201 1010 l 150 1010 q 89 1019 99 1010 q 79 1043 79 1029 q 93 1074 79 1061 z "},"Z":{"ha":889,"x_min":74,"x_max":814,"o":"m 254 1026 q 282 1043 278 1043 q 301 1035 286 1043 q 318 1008 318 1025 q 285 947 318 983 q 149 585 149 800 q 196 361 149 465 q 215 326 201 347 q 242 284 228 306 q 269 244 256 263 q 293 214 283 225 q 304 204 303 203 q 424 451 308 208 q 561 707 539 697 q 592 714 586 718 q 708 436 601 707 q 814 147 814 165 q 804 126 814 133 q 782 118 794 118 q 763 122 772 118 q 701 243 747 131 q 613 463 654 356 q 567 571 571 571 q 456 344 561 571 q 360 151 386 196 q 314 106 335 106 q 243 163 297 106 q 142 307 181 226 q 88 448 101 389 q 74 593 74 507 q 135 860 74 738 q 195 957 157 903 q 254 1026 233 1011 z "},"[":{"ha":589,"x_min":72,"x_max":511,"o":"m 238 754 q 393 774 390 772 q 418 767 401 774 q 435 731 435 757 q 421 703 435 708 q 279 683 410 699 l 149 667 l 149 642 q 163 401 149 619 q 178 182 176 183 l 256 176 q 413 164 332 171 q 501 151 494 157 q 511 124 511 143 q 500 94 511 101 q 451 89 492 89 q 313 94 440 89 q 121 118 135 104 q 105 168 110 128 q 88 369 100 208 q 72 660 72 610 q 81 724 72 711 q 238 754 89 736 z "},"\\":{"ha":781,"x_min":75,"x_max":701,"o":"m 88 871 q 111 878 96 878 q 132 872 125 878 q 408 529 140 865 q 692 169 676 193 q 701 142 701 156 q 679 110 701 119 q 650 111 663 100 q 358 471 639 118 q 78 842 79 822 q 88 871 75 865 z "},"]":{"ha":560,"x_min":72,"x_max":486,"o":"m 83 733 q 124 749 94 749 q 275 735 140 749 q 422 717 399 722 q 456 694 444 713 q 476 531 467 676 q 486 257 486 385 q 478 118 486 147 q 467 88 471 96 q 448 75 463 81 q 404 69 433 69 q 290 75 393 69 q 131 91 163 83 q 99 122 99 99 q 110 152 99 144 q 158 160 121 160 q 264 154 201 160 q 386 149 332 149 q 408 150 407 149 q 411 204 411 153 q 403 470 411 304 q 389 642 394 636 q 244 663 386 644 q 122 680 147 675 q 88 697 96 685 q 83 733 72 715 z "},"^":{"ha":707,"x_min":78,"x_max":629,"o":"m 347 756 q 376 775 360 775 q 397 769 381 775 q 525 458 411 765 q 629 147 629 181 q 607 115 629 129 q 576 124 593 107 q 472 382 561 139 q 376 631 382 631 q 261 401 368 631 q 135 150 151 169 q 110 139 124 139 q 88 147 99 139 q 78 165 78 154 q 204 460 78 190 q 347 756 339 743 z "},"_":{"ha":707,"x_min":75,"x_max":632,"o":"m 204 196 q 339 211 278 211 q 524 196 399 211 q 612 181 592 189 q 632 153 632 172 q 619 126 632 133 q 575 118 607 118 q 514 122 551 118 q 353 131 426 131 q 215 117 253 131 q 138 101 172 101 q 83 122 96 101 q 75 147 75 135 q 100 175 75 169 q 204 196 110 176 z "},"`":{"ha":315,"x_min":75,"x_max":240,"o":"m 133 832 q 203 851 181 851 q 236 831 225 851 q 240 806 240 822 q 218 639 240 776 q 203 553 211 597 q 192 482 196 510 l 186 454 q 147 432 179 432 q 126 439 133 432 q 76 758 110 456 q 76 767 76 763 q 75 775 75 772 q 87 806 75 796 q 133 832 99 817 z "},"a":{"ha":610,"x_min":76,"x_max":539,"o":"m 461 651 q 476 785 461 769 q 506 800 492 800 q 528 790 518 800 q 539 488 539 779 q 537 242 539 296 q 525 175 535 188 q 497 157 513 157 q 467 178 474 157 q 461 279 461 200 l 461 319 l 463 457 l 272 457 l 204 319 q 143 207 160 232 q 111 182 126 182 q 89 188 106 182 q 76 207 76 192 q 150 383 76 240 l 225 531 l 343 533 l 461 535 l 461 651 z "},"b":{"ha":639,"x_min":74,"x_max":565,"o":"m 211 840 q 264 849 233 849 q 340 829 313 849 q 368 759 363 811 q 375 503 374 707 q 381 251 378 268 q 391 230 385 235 q 415 225 397 225 q 463 242 440 225 q 480 269 476 253 q 485 346 483 285 q 500 446 486 435 q 526 457 515 457 q 553 443 540 457 q 565 389 565 431 q 564 342 565 361 q 544 222 561 260 q 485 165 526 185 q 413 147 449 147 q 322 185 361 147 l 299 207 l 299 775 l 271 775 q 187 738 221 775 q 153 646 153 701 q 119 588 153 588 q 106 589 110 588 q 74 651 74 597 q 115 774 74 717 q 211 840 146 817 z "},"c":{"ha":610,"x_min":76,"x_max":533,"o":"m 413 535 q 443 547 422 547 q 471 536 463 547 q 481 347 481 524 l 481 286 q 468 156 481 168 q 282 142 454 142 q 92 150 106 142 q 76 182 76 158 q 86 208 76 199 q 250 219 97 219 l 401 219 l 407 325 q 408 414 408 354 q 407 476 408 464 q 406 506 406 488 q 413 535 406 528 m 369 729 q 443 736 400 736 l 450 736 q 533 696 533 736 q 517 668 533 676 q 454 660 500 660 q 364 644 397 660 q 307 589 331 628 q 278 489 278 540 q 283 438 278 461 q 290 399 290 406 q 282 378 290 389 q 246 369 268 365 q 213 410 225 375 q 200 492 200 446 q 215 581 200 544 q 281 673 238 632 q 369 729 324 714 z "},"d":{"ha":472,"x_min":69,"x_max":397,"o":"m 211 710 q 233 719 221 719 q 289 696 250 719 q 369 608 342 663 q 397 492 397 553 q 313 303 397 375 q 261 272 278 272 q 235 286 249 272 q 221 308 221 300 q 258 357 221 321 q 322 488 322 417 q 235 639 322 583 q 200 686 200 661 q 211 710 200 699 m 81 821 q 101 832 88 832 q 126 821 114 832 q 140 761 138 814 q 142 483 142 708 q 132 144 140 154 q 106 133 125 133 q 81 144 88 133 q 69 483 69 158 q 81 821 69 807 z "},"e":{"ha":558,"x_min":74,"x_max":483,"o":"m 135 715 q 176 718 163 718 q 345 670 269 718 q 461 535 421 622 q 483 413 483 489 q 479 340 483 361 q 456 281 475 318 q 343 153 415 199 q 179 107 271 108 l 158 107 q 97 125 115 107 q 83 147 83 139 q 90 167 83 153 q 100 183 96 179 q 115 188 104 188 q 146 185 118 188 q 174 183 156 183 q 311 226 250 183 q 397 340 372 268 l 408 374 l 281 378 q 153 390 181 382 q 125 419 125 397 q 151 449 125 443 q 278 456 178 456 l 410 456 l 400 482 q 286 615 369 574 q 189 639 238 639 l 161 639 l 142 639 q 85 646 97 639 q 74 678 74 653 q 86 703 74 696 q 135 715 99 711 z "},"f":{"ha":560,"x_min":71,"x_max":483,"o":"m 93 743 q 286 749 101 746 l 342 749 q 474 739 464 749 q 483 714 483 729 q 467 681 483 689 q 299 671 450 671 l 147 671 l 147 567 q 154 297 151 374 q 157 194 157 211 q 150 119 157 136 q 122 101 143 101 q 88 148 96 101 q 75 413 81 194 q 71 663 71 563 q 72 717 71 713 q 93 743 78 740 z "},"g":{"ha":604,"x_min":71,"x_max":528,"o":"m 329 397 q 394 401 389 400 l 401 401 q 432 389 419 401 q 444 361 444 376 q 440 344 444 353 q 360 322 432 328 q 315 319 326 319 q 251 356 251 319 q 267 388 251 379 q 329 397 282 396 m 278 671 q 358 675 306 675 q 517 661 500 675 q 528 632 528 650 q 517 606 528 614 q 393 599 503 599 q 242 581 281 599 q 169 488 189 556 q 149 263 149 421 l 149 242 l 149 206 q 142 99 149 122 q 113 75 135 75 q 83 92 97 75 q 71 182 71 104 q 72 279 71 238 q 94 510 75 453 q 278 671 139 647 z "},"h":{"ha":482,"x_min":72,"x_max":408,"o":"m 342 721 q 371 732 353 732 q 401 716 394 732 q 408 647 408 700 l 408 625 q 401 486 406 531 q 373 425 396 438 q 251 407 350 413 l 150 401 l 150 253 q 147 122 150 142 q 131 96 144 101 q 92 96 110 88 q 75 124 78 101 q 72 274 72 147 q 83 458 72 443 q 190 482 96 475 q 239 485 211 483 q 285 488 267 486 q 308 489 303 489 l 332 490 l 332 600 q 342 721 332 711 z "},"i":{"ha":464,"x_min":74,"x_max":390,"o":"m 175 276 q 200 292 190 292 q 234 269 213 292 q 256 235 256 247 q 233 188 256 210 q 185 167 210 167 q 168 171 176 167 q 153 196 153 178 q 156 221 153 199 q 175 276 160 258 m 203 628 q 238 646 221 646 q 269 630 250 646 q 289 603 289 614 q 277 567 289 586 q 251 540 265 547 q 232 536 240 536 q 199 552 213 536 q 186 589 186 568 q 203 628 186 611 m 92 701 q 117 710 104 710 q 144 694 133 710 q 151 571 151 681 l 151 456 l 260 456 q 348 453 328 456 q 374 440 368 450 q 388 260 382 422 q 390 143 390 151 q 381 81 390 92 q 357 67 367 67 q 332 75 347 67 q 315 135 315 86 q 310 281 315 172 l 304 376 l 201 379 q 113 385 132 382 q 86 399 94 388 q 74 551 74 415 q 76 669 74 647 q 92 701 79 692 z "},"j":{"ha":479,"x_min":75,"x_max":404,"o":"m 338 739 q 365 749 346 749 q 394 739 385 749 q 404 676 404 729 q 393 581 404 618 q 365 508 382 538 q 299 411 349 478 q 241 323 256 353 q 226 258 226 293 q 232 199 226 231 q 239 138 239 154 q 207 94 239 99 q 202 94 206 94 q 197 93 199 93 q 171 114 179 93 q 154 196 163 135 q 147 269 147 256 q 161 332 147 294 l 179 382 l 146 410 q 75 567 75 472 q 99 672 75 625 q 151 718 124 718 q 165 714 158 718 q 186 683 186 701 q 171 639 186 667 q 153 565 153 604 q 207 457 153 490 q 224 450 218 450 q 251 474 232 450 q 325 663 321 553 q 338 739 331 729 z "},"k":{"ha":713,"x_min":75,"x_max":638,"o":"m 268 421 q 283 418 272 421 q 297 415 293 415 q 308 429 308 415 q 297 446 308 446 q 272 440 294 446 q 257 428 256 436 q 268 421 257 421 m 308 638 q 318 756 308 746 q 340 765 328 765 q 371 751 356 765 q 386 644 386 736 l 386 553 l 486 582 q 599 608 574 608 q 631 592 621 608 q 638 574 638 581 q 601 541 638 557 q 463 494 565 525 l 386 472 l 386 390 l 501 357 q 626 315 618 324 q 636 290 636 306 q 619 258 636 267 q 606 256 614 256 q 500 279 581 256 q 389 308 397 308 q 386 278 386 308 q 389 206 386 261 q 392 133 392 139 q 378 85 392 99 q 342 75 361 68 q 323 98 326 81 q 315 201 319 115 q 308 326 310 322 q 207 361 308 333 q 95 395 115 386 q 75 421 75 404 q 94 459 75 447 q 197 496 114 471 l 308 528 l 308 638 z "},"l":{"ha":751,"x_min":72,"x_max":676,"o":"m 88 558 q 113 574 100 574 q 135 563 121 574 q 147 524 144 556 q 151 383 150 492 l 154 215 l 407 207 q 660 189 636 199 q 676 158 675 182 q 658 132 676 139 q 575 125 640 125 q 454 128 557 125 q 170 140 244 135 q 85 157 96 146 q 72 356 72 169 q 75 511 72 475 q 88 558 78 547 z "},"m":{"ha":465,"x_min":69,"x_max":389,"o":"m 75 701 q 107 713 81 714 l 135 710 q 139 584 136 668 q 143 458 142 500 l 181 408 q 225 356 222 356 q 278 408 232 356 q 340 474 329 468 q 354 478 346 478 q 378 468 367 478 q 389 446 389 458 q 315 343 389 429 q 228 257 242 257 q 176 299 213 257 l 139 339 l 139 219 l 139 189 q 132 97 139 118 q 104 75 125 75 q 74 117 78 75 q 69 392 69 160 q 75 701 69 685 z "},"n":{"ha":547,"x_min":75,"x_max":476,"o":"m 104 196 q 144 214 122 214 q 172 204 161 214 q 182 178 182 194 q 162 141 182 160 q 125 122 142 122 q 122 122 124 122 l 119 124 q 88 161 88 135 q 104 196 88 179 m 417 729 q 440 740 425 740 q 467 728 456 740 q 476 660 476 713 q 467 340 476 647 q 449 96 458 110 q 425 85 440 85 q 378 118 396 85 q 215 408 371 133 q 75 682 75 658 q 87 701 75 694 q 107 708 99 708 q 128 700 119 708 q 264 471 143 685 q 385 274 374 274 q 390 285 388 274 q 401 515 396 319 q 417 729 406 715 z "},"o":{"ha":549,"x_min":75,"x_max":474,"o":"m 335 610 q 275 639 301 639 q 242 631 258 639 q 173 546 199 608 q 147 408 147 483 q 179 256 147 321 q 276 171 221 171 q 374 258 333 171 q 391 314 388 289 q 394 404 394 339 q 374 549 394 500 q 335 610 354 590 m 207 697 q 272 714 239 714 q 376 670 328 714 q 450 550 424 626 q 474 408 474 479 q 426 208 474 297 q 307 101 379 119 q 272 97 289 97 q 175 142 225 97 q 101 256 126 185 q 75 408 75 328 q 110 584 75 504 q 207 697 144 664 z "},"p":{"ha":519,"x_min":76,"x_max":450,"o":"m 94 768 q 96 803 85 790 q 260 815 107 815 q 425 804 414 814 q 438 742 435 797 q 446 490 442 688 q 450 265 450 328 q 447 193 450 208 q 435 168 444 178 q 396 153 422 156 q 258 150 369 150 q 92 157 106 150 q 76 188 76 168 q 81 203 76 194 q 112 216 85 213 q 231 224 139 219 l 372 229 l 372 735 l 340 740 q 206 746 304 746 q 116 749 131 746 q 94 768 101 751 z "},"q":{"ha":615,"x_min":75,"x_max":546,"o":"m 186 725 q 439 731 319 731 q 528 728 522 731 q 544 684 542 724 q 546 418 546 644 q 541 135 546 178 q 508 93 536 93 q 480 111 486 93 q 474 207 474 129 q 476 389 474 228 l 481 665 l 439 660 q 335 654 394 654 l 271 654 l 271 397 q 264 146 271 186 q 218 97 257 106 q 193 94 201 94 q 111 131 151 94 q 87 163 93 149 q 76 208 81 176 q 75 238 75 219 q 108 292 75 292 q 140 278 131 292 q 149 229 149 264 q 190 171 149 171 q 197 411 197 171 l 197 650 l 174 653 q 135 689 135 657 q 136 701 135 697 q 140 713 138 710 q 148 719 142 717 q 162 723 154 722 q 186 725 169 724 z "},"r":{"ha":453,"x_min":71,"x_max":381,"o":"m 190 615 q 206 639 190 628 q 303 650 221 650 q 369 643 356 650 q 381 618 381 636 q 364 585 381 594 q 294 575 346 575 q 204 590 217 575 q 190 615 190 604 m 74 722 q 106 731 79 733 l 133 728 l 142 571 l 149 414 l 265 278 q 378 121 378 149 q 361 99 378 111 q 347 94 354 94 q 251 178 319 94 q 203 235 233 199 q 172 274 174 272 l 147 304 l 147 208 q 133 107 147 113 q 117 104 122 104 q 83 122 90 104 q 75 310 79 132 q 71 619 71 488 q 74 722 71 717 z "},"s":{"ha":689,"x_min":75,"x_max":615,"o":"m 238 718 q 333 725 265 725 q 456 719 381 725 q 513 712 499 717 q 535 694 528 707 q 538 657 547 675 q 513 640 529 640 q 492 643 508 640 q 336 656 406 656 q 247 646 276 656 q 180 604 208 633 q 146 540 151 575 q 143 522 143 526 q 159 495 143 504 q 224 474 175 486 q 315 443 279 460 q 364 428 336 432 q 471 425 392 425 q 604 414 594 425 q 615 182 615 400 q 611 90 615 99 q 588 82 607 82 q 557 92 567 82 q 546 229 546 103 l 546 357 l 379 357 l 378 256 q 347 64 376 79 q 317 64 331 56 q 304 97 307 71 q 301 215 301 122 q 299 342 301 321 q 282 375 296 363 q 226 400 263 390 q 106 442 132 424 q 75 513 79 461 l 75 525 q 121 645 75 590 q 238 718 167 700 z "},"t":{"ha":614,"x_min":75,"x_max":538,"o":"m 444 501 q 479 510 465 510 q 526 472 507 510 q 538 432 538 451 q 472 382 538 382 q 400 438 400 382 q 444 501 401 485 m 289 740 q 311 751 300 751 q 335 739 322 751 q 350 419 347 726 q 351 254 351 360 q 347 97 351 106 q 317 82 340 82 q 290 92 300 82 q 281 260 281 101 l 281 417 l 182 417 q 95 419 108 417 q 78 438 82 422 q 75 454 75 451 q 97 478 75 472 q 183 488 119 485 l 276 490 l 278 608 q 289 740 281 726 z "},"u":{"ha":638,"x_min":71,"x_max":565,"o":"m 90 164 q 235 175 108 175 l 331 175 q 522 172 490 174 q 560 158 554 169 q 565 140 565 149 q 519 106 565 110 q 372 103 492 103 l 286 103 q 78 117 85 104 q 71 136 71 128 q 90 164 71 149 m 103 432 q 147 446 114 443 q 301 450 181 449 l 375 450 q 499 443 468 450 q 532 417 529 436 q 533 411 532 414 q 533 407 533 408 q 496 384 533 389 q 315 378 458 379 l 246 378 q 99 389 110 378 q 88 408 88 403 q 103 432 88 417 m 93 728 q 165 740 106 740 q 297 738 175 740 q 515 726 478 733 q 560 692 560 718 q 554 676 560 688 q 465 663 547 663 q 336 664 393 663 q 110 672 128 667 q 85 706 85 679 q 93 728 85 719 z "},"v":{"ha":597,"x_min":75,"x_max":521,"o":"m 89 690 q 108 696 100 696 q 138 681 131 696 q 183 569 140 676 q 267 358 225 461 q 311 256 308 256 q 381 449 313 256 q 456 659 442 626 q 492 692 471 692 q 521 668 521 692 q 439 399 521 639 q 333 121 347 138 q 301 114 318 106 q 181 380 288 121 q 75 664 75 639 q 89 690 75 683 z "},"w":{"ha":872,"x_min":76,"x_max":796,"o":"m 404 707 q 425 717 413 717 q 454 703 442 717 q 513 568 464 692 q 610 328 563 444 q 660 211 657 211 q 693 255 664 211 q 729 317 722 299 q 758 331 735 331 q 786 321 776 331 q 796 299 796 311 q 750 213 796 276 q 699 128 704 146 q 668 103 690 103 q 618 133 642 103 q 545 296 608 146 q 436 565 482 446 l 435 567 q 351 360 426 567 q 271 158 296 208 q 221 107 246 107 q 135 181 197 107 q 76 272 76 249 q 101 303 76 301 l 108 303 q 165 256 129 303 q 211 204 208 204 q 306 450 217 204 q 404 707 393 696 z "},"x":{"ha":550,"x_min":75,"x_max":476,"o":"m 350 597 q 403 678 386 657 q 432 700 421 700 q 459 690 447 700 q 471 668 471 681 q 396 538 471 660 l 324 418 l 401 285 q 476 131 476 156 q 449 110 476 113 l 442 110 q 415 128 428 110 q 354 224 401 146 q 281 339 286 339 q 203 224 274 339 q 114 107 131 107 q 87 117 99 107 q 75 140 75 128 q 157 285 75 149 l 239 418 l 169 535 q 107 665 107 643 q 124 686 107 681 q 136 689 132 689 q 169 668 151 689 q 221 589 186 647 q 281 494 275 494 q 350 597 288 494 z "},"y":{"ha":422,"x_min":76,"x_max":344,"o":"m 76 699 q 92 725 76 717 q 154 733 107 733 q 221 724 211 733 q 231 432 231 714 l 231 150 l 276 150 q 331 143 317 150 q 344 117 344 135 q 340 97 344 106 q 257 82 333 82 q 171 93 181 82 q 161 296 161 103 l 161 386 l 163 667 l 133 661 q 117 660 128 660 q 90 669 100 660 q 76 699 76 682 z "},"z":{"ha":714,"x_min":75,"x_max":639,"o":"m 185 682 q 249 726 224 726 q 279 704 274 726 q 281 696 281 701 q 243 639 281 681 q 146 394 146 531 q 150 343 146 368 q 181 246 157 304 q 218 188 206 188 q 308 349 226 188 q 381 486 360 451 q 419 521 403 521 q 440 511 428 521 q 549 321 451 501 q 639 118 639 150 q 610 99 639 99 q 576 122 592 99 q 504 249 560 144 q 421 400 425 400 q 342 253 413 400 q 267 112 286 142 q 229 82 247 82 q 180 122 215 82 q 125 200 144 163 q 75 400 75 297 q 185 682 75 556 z "},"{":{"ha":578,"x_min":78,"x_max":499,"o":"m 303 783 q 356 792 332 792 q 413 754 413 792 q 400 726 413 735 q 353 713 388 717 q 286 676 315 710 q 220 572 268 657 q 172 479 172 488 q 208 461 172 478 q 272 396 254 439 q 290 269 290 353 l 290 238 l 288 144 l 308 142 q 400 131 338 135 q 480 117 461 125 q 499 89 499 110 q 490 60 499 68 q 450 53 481 53 q 357 60 429 53 q 225 81 242 69 q 211 225 211 90 q 209 303 211 278 q 204 349 207 328 q 191 380 201 371 q 169 394 181 389 q 132 407 157 400 q 90 424 103 415 q 78 447 78 432 q 142 592 78 474 q 228 722 185 669 q 303 783 272 775 z "},"|":{"ha":244,"x_min":71,"x_max":174,"o":"m 108 981 q 136 990 118 990 q 167 976 160 990 q 174 906 174 961 q 172 821 174 856 q 166 607 171 779 q 158 347 161 435 q 144 10 149 26 q 125 -10 142 0 q 89 -4 107 -19 l 71 11 l 85 490 q 108 981 99 968 z "},"}":{"ha":575,"x_min":78,"x_max":497,"o":"m 108 767 q 139 781 119 778 q 226 783 158 783 l 326 783 l 358 749 q 406 625 406 697 q 403 593 406 615 q 393 483 393 535 l 393 471 q 435 450 396 456 q 484 436 471 444 q 497 408 497 428 q 488 381 497 392 q 463 369 478 369 q 417 279 425 369 q 399 183 411 214 q 350 119 386 151 q 305 87 324 96 q 244 71 286 78 q 135 60 181 60 q 94 65 101 60 q 79 90 85 69 q 78 99 78 93 q 174 138 78 132 q 342 282 342 150 q 350 358 342 336 q 353 381 353 368 q 342 406 353 393 q 315 500 315 433 q 321 568 315 535 q 329 631 329 614 q 318 671 329 646 l 303 701 l 204 706 q 119 712 135 708 q 99 731 104 715 q 108 767 92 750 z "},"~":{"ha":947,"x_min":75,"x_max":872,"o":"m 763 433 q 844 489 819 489 q 868 472 860 489 q 872 458 872 464 q 854 419 872 447 q 797 358 832 389 q 733 314 763 328 q 678 300 703 300 q 547 339 633 300 q 382 390 438 390 q 324 383 361 390 q 193 340 265 371 q 107 308 115 308 q 84 319 93 308 q 75 344 75 329 q 76 356 75 351 q 97 379 79 368 q 165 411 115 390 q 378 465 297 465 q 553 418 451 465 q 671 378 640 378 q 763 433 707 378 z "},"":{"ha":611,"x_min":0,"x_max":0,"o":""},"":{"ha":472,"x_min":76,"x_max":397,"o":"m 172 669 q 182 692 178 686 q 197 697 186 697 q 202 697 199 697 q 208 696 206 696 l 236 693 l 315 443 q 394 169 394 190 q 386 139 397 147 q 243 125 378 131 q 158 124 206 124 q 101 132 108 124 q 99 151 99 135 q 128 393 99 193 q 172 669 161 629 m 124 978 q 182 992 150 992 q 244 977 215 992 q 285 939 272 963 q 300 879 300 906 q 281 826 300 846 q 228 806 261 806 l 225 806 q 117 834 158 807 q 76 903 76 861 q 124 978 76 953 z "},"":{"ha":636,"x_min":76,"x_max":560,"o":"m 256 797 q 283 817 264 817 q 345 776 313 817 q 378 690 378 735 q 357 617 378 650 q 265 511 336 583 q 167 396 181 424 q 154 333 154 372 q 174 238 154 281 l 188 206 l 321 206 q 439 208 421 206 q 460 225 457 211 q 476 321 467 268 q 495 397 486 375 q 519 418 504 418 q 538 414 528 418 q 560 381 560 404 q 540 251 560 346 q 514 147 521 156 q 261 129 496 129 q 143 138 153 129 q 103 213 125 153 q 78 319 82 272 q 77 329 78 322 q 76 340 76 336 q 103 437 76 392 q 208 564 131 482 q 304 682 304 665 q 278 735 304 701 q 251 782 251 768 q 256 797 251 789 m 290 1068 q 349 1085 324 1085 q 406 1014 406 1085 q 382 943 406 975 q 358 919 368 924 q 324 914 347 914 q 267 928 285 914 q 244 978 250 943 q 242 1003 242 997 q 290 1068 242 1042 z "},"":{"ha":758,"x_min":75,"x_max":689,"o":"m 385 874 q 369 939 369 896 q 381 1001 369 975 q 414 1026 393 1026 q 428 1013 428 1026 q 425 985 428 1010 q 424 958 424 974 q 431 946 424 946 q 443 947 438 946 q 454 949 447 949 q 506 911 496 949 q 506 907 506 910 q 507 903 507 904 q 494 861 507 883 q 467 833 481 839 q 463 833 465 833 q 458 832 460 832 q 418 844 440 832 q 385 874 396 857 m 613 867 q 618 1090 613 1085 q 651 1093 624 1096 l 676 1092 l 682 932 q 689 440 686 799 l 689 294 q 686 134 689 164 q 672 99 683 104 q 639 99 654 90 q 625 138 628 104 q 618 339 622 171 q 608 578 613 574 q 594 579 608 579 q 544 577 583 579 q 482 575 506 575 l 358 569 l 246 339 q 124 103 135 107 q 111 100 115 100 q 88 108 100 100 q 75 125 75 115 q 194 394 75 151 l 319 649 l 613 649 l 613 867 z "},"":{"ha":779,"x_min":78,"x_max":704,"o":"m 82 926 q 104 946 90 947 q 117 917 117 942 l 117 903 q 115 878 115 892 q 121 867 115 867 l 132 869 q 178 881 168 881 q 203 869 189 881 q 225 821 225 849 q 190 769 225 781 q 167 765 181 765 q 103 796 122 765 q 78 897 78 833 q 82 926 78 917 m 189 1043 q 239 1053 199 1053 q 350 1038 292 1053 q 568 911 478 1001 q 704 586 704 775 q 621 315 704 431 q 389 146 538 199 q 246 122 325 122 q 176 125 189 122 q 157 143 164 128 q 161 179 149 163 q 188 194 171 194 q 215 192 190 194 q 238 190 222 190 q 315 199 275 190 q 523 310 439 225 q 631 521 607 396 l 636 549 l 421 546 q 361 545 397 546 q 313 544 325 544 q 190 558 204 544 q 185 590 176 572 l 194 610 l 413 614 q 632 622 629 619 q 633 628 633 624 q 593 760 633 671 q 449 917 549 856 q 240 979 349 979 q 193 985 207 979 q 181 1015 181 989 q 189 1043 181 1035 z "},"":{"ha":697,"x_min":78,"x_max":626,"o":"m 335 396 q 344 432 335 422 q 367 442 354 442 q 411 419 385 442 q 438 371 438 397 q 429 339 438 356 q 393 322 421 322 q 349 342 361 322 q 335 396 335 360 m 406 953 q 439 965 422 965 q 471 953 454 965 q 503 906 503 932 q 471 864 503 881 q 450 860 463 860 q 414 868 432 860 q 392 886 396 876 q 388 913 388 899 q 406 953 388 940 m 85 990 q 103 1004 93 1004 q 119 979 119 1004 q 124 963 119 967 q 144 958 129 958 q 189 914 189 958 q 175 878 189 892 q 142 864 161 864 q 103 879 122 864 q 78 956 78 900 q 85 990 78 981 m 261 1092 q 282 1104 278 1104 q 301 1096 286 1104 q 315 1062 313 1089 q 318 915 318 1035 l 318 743 l 458 743 q 578 741 551 743 q 615 729 606 739 q 626 643 626 718 q 622 422 626 583 q 608 118 618 129 q 582 108 600 108 q 550 122 558 108 q 546 229 546 131 q 547 400 546 332 l 551 664 l 407 668 q 250 685 263 675 q 240 776 240 694 q 242 889 240 842 q 247 1053 244 1021 q 261 1092 250 1085 z "},"":{"ha":540,"x_min":75,"x_max":469,"o":"m 169 396 q 179 432 169 422 q 201 442 189 442 q 246 419 219 442 q 272 371 272 397 q 264 339 272 356 q 228 322 256 322 q 183 342 196 322 q 169 396 169 360 m 399 1019 q 422 1033 414 1035 q 433 1011 433 1029 q 422 983 433 990 q 410 965 410 972 q 425 958 411 958 q 457 942 444 958 q 469 906 469 926 q 451 868 469 881 q 413 854 433 854 q 371 881 383 854 q 358 924 358 906 q 372 973 358 942 q 399 1019 385 1004 m 251 1014 q 285 1035 269 1035 q 303 1021 303 1035 q 289 996 303 1010 q 274 975 274 979 q 276 970 274 972 q 287 964 279 968 q 300 956 294 960 q 336 904 336 932 q 306 864 336 881 q 283 858 296 858 q 244 869 263 858 q 219 896 225 881 q 215 919 215 906 q 251 1014 215 978 m 96 1092 q 117 1104 113 1104 q 136 1096 122 1104 q 150 1062 147 1089 q 153 915 153 1035 l 153 743 l 293 743 q 412 741 385 743 q 449 729 439 739 q 460 639 460 718 q 457 422 460 526 q 443 118 453 129 q 417 108 435 108 q 385 122 393 108 q 381 229 381 131 q 382 400 381 332 l 386 664 l 242 669 q 85 686 100 674 q 75 779 75 694 q 76 888 75 842 q 82 1052 79 1021 q 96 1092 85 1083 z "},"":{"ha":656,"x_min":76,"x_max":586,"o":"m 94 263 q 140 279 111 279 q 187 258 168 279 q 206 208 206 236 q 183 160 206 178 q 142 143 163 143 q 99 164 119 143 q 76 217 76 185 q 94 263 76 244 m 536 981 q 554 986 543 986 q 585 964 582 986 q 585 951 585 963 q 586 929 586 939 q 574 474 586 806 q 556 136 561 142 q 526 125 544 125 q 493 157 513 125 q 413 317 474 189 q 322 499 396 349 q 215 717 249 650 q 111 940 111 928 q 122 964 111 954 q 144 974 132 974 q 153 972 150 974 q 331 636 167 968 q 413 471 375 546 q 472 353 450 396 q 497 310 494 310 q 497 310 497 310 q 513 643 503 315 q 522 917 518 861 q 536 981 526 974 m 431 1060 q 458 1078 449 1078 q 483 1060 469 1078 q 492 1040 492 1047 q 483 1017 492 1033 q 418 975 461 975 q 338 989 396 975 q 288 999 300 999 q 265 988 276 999 q 228 982 247 972 q 207 1010 207 990 q 228 1049 207 1028 q 282 1069 249 1069 q 363 1056 307 1069 q 407 1044 399 1044 q 431 1060 418 1044 z "},"":{"ha":671,"x_min":72,"x_max":597,"o":"m 86 894 q 96 931 86 921 q 114 940 106 940 q 128 919 128 940 q 131 904 128 907 q 144 904 135 901 l 149 904 q 181 886 164 904 q 197 850 197 868 q 184 821 197 832 q 153 810 171 810 q 103 835 122 810 q 86 894 86 858 m 275 1068 q 328 1075 297 1075 q 480 997 413 1075 q 582 782 547 919 q 597 589 597 714 q 579 386 597 446 q 505 224 553 292 q 399 128 457 156 q 333 108 360 108 q 269 128 308 108 q 132 283 186 168 q 83 421 94 363 q 72 593 72 479 q 79 753 72 732 q 93 772 83 772 q 118 765 97 772 q 147 739 147 756 q 147 712 147 732 q 144 659 146 692 q 143 597 143 626 l 143 571 q 161 415 143 483 q 237 248 189 311 q 336 185 285 185 q 356 188 342 185 q 404 217 376 193 q 450 269 432 242 q 507 419 485 325 q 529 596 529 513 q 528 640 529 626 q 486 844 515 767 q 404 969 457 921 q 332 1001 371 1001 q 243 951 286 1001 l 218 922 l 190 938 q 163 965 163 953 q 207 1020 163 979 q 275 1068 251 1061 z "},"":{"ha":844,"x_min":75,"x_max":769,"o":"m 92 194 q 315 204 107 204 l 424 204 q 756 188 740 201 q 769 158 769 175 q 754 129 769 143 q 656 118 742 118 q 418 121 533 118 q 121 133 167 126 q 75 168 75 139 q 92 194 75 185 m 418 546 q 578 547 476 547 q 688 546 683 547 q 713 524 706 543 q 707 488 722 503 q 656 473 697 476 q 436 465 614 469 q 254 463 281 463 q 161 468 171 463 q 144 507 144 476 q 156 535 144 529 q 418 546 168 540 m 100 922 q 127 936 106 933 q 249 939 149 939 l 399 939 q 650 934 610 936 q 697 919 690 932 q 701 883 710 903 l 694 864 l 110 864 l 100 883 q 100 922 90 904 m 389 1107 q 446 1129 421 1129 q 467 1119 461 1129 l 467 1118 l 468 1117 q 454 1094 468 1108 q 425 1075 440 1081 q 435 1057 417 1071 q 453 1022 453 1043 q 431 979 453 1000 q 396 960 411 960 q 391 960 394 960 q 386 961 388 961 q 348 986 363 967 q 333 1031 333 1006 q 345 1069 335 1054 q 389 1107 356 1085 z "},"":{"ha":844,"x_min":75,"x_max":769,"o":"m 92 204 q 286 213 103 213 l 424 213 q 756 196 740 210 q 769 168 769 183 q 754 139 769 153 q 640 126 739 126 q 418 129 624 126 q 121 141 167 135 q 75 176 75 147 q 92 204 75 194 m 414 554 q 618 557 575 557 q 648 556 633 557 q 671 556 663 556 q 681 556 679 556 q 707 541 694 554 q 719 515 719 528 q 704 492 719 504 q 644 480 694 483 q 435 474 594 476 q 254 471 279 471 q 161 476 171 471 q 144 515 144 485 q 156 543 144 538 q 414 554 168 549 m 100 932 q 126 945 106 942 q 232 949 146 949 q 303 948 249 949 q 399 947 358 947 q 647 943 604 946 q 697 928 690 940 q 701 892 710 911 l 694 872 l 110 872 l 100 893 q 100 932 90 914 m 483 1089 q 510 1104 499 1104 q 528 1083 528 1104 q 522 1067 528 1074 q 526 1044 513 1056 q 540 1017 540 1032 q 528 990 540 1001 q 500 979 517 979 q 475 988 488 979 q 454 1028 454 1000 q 483 1089 454 1060 m 247 1089 q 285 1111 264 1111 q 301 1100 297 1111 q 294 1078 306 1089 q 299 1044 282 1067 q 313 1008 313 1026 q 279 976 313 976 q 258 981 271 976 q 239 994 243 986 q 232 1028 235 1001 l 232 1040 q 247 1089 232 1072 z "},"":{"ha":403,"x_min":76,"x_max":326,"o":"m 133 214 q 142 231 133 214 q 169 258 151 249 q 211 268 188 268 q 281 240 257 268 q 300 189 300 217 q 288 138 300 164 q 210 92 269 92 q 186 93 194 92 q 115 147 128 97 q 115 151 115 149 q 114 156 114 154 q 133 214 114 179 m 78 1038 q 106 1053 86 1053 q 225 993 124 1053 q 326 917 326 933 q 288 615 326 869 q 239 350 249 361 q 215 340 231 340 q 181 360 189 340 q 121 700 171 382 q 76 1025 76 968 q 78 1038 76 1036 z "},"":{"ha":568,"x_min":75,"x_max":499,"o":"m 239 607 q 257 669 239 639 q 292 700 275 700 q 304 692 300 700 q 301 667 308 685 q 314 636 292 651 q 336 594 336 621 q 323 558 336 574 q 290 542 310 542 q 272 544 278 542 q 239 607 239 557 m 436 725 q 460 733 451 733 q 485 721 472 733 q 497 658 494 713 q 499 403 499 604 l 499 99 l 476 93 q 444 93 454 88 q 421 299 421 101 l 421 408 l 389 407 q 318 401 360 407 l 282 396 l 207 249 q 144 131 163 161 q 114 100 125 101 q 82 119 96 99 q 75 138 75 129 q 151 307 75 154 l 236 472 l 283 474 q 376 482 318 475 l 421 486 l 421 601 q 424 699 421 678 q 436 725 426 719 z "},"":{"ha":594,"x_min":75,"x_max":518,"o":"m 81 614 q 96 623 88 625 q 108 606 104 621 q 138 589 113 589 q 175 571 161 589 q 183 550 183 558 q 176 528 183 544 q 133 497 160 497 q 86 524 108 497 q 75 581 75 538 q 81 614 75 604 m 131 719 q 194 725 158 725 q 399 650 310 725 q 514 453 488 575 q 518 408 518 432 q 488 274 518 343 q 408 163 457 204 q 215 85 329 93 q 176 83 200 83 q 132 92 144 83 q 119 119 119 100 q 136 150 119 142 q 197 158 153 158 q 329 199 269 158 q 419 306 389 239 q 436 349 436 342 q 374 365 436 365 q 340 365 365 365 q 296 364 314 364 q 215 363 261 363 q 142 376 151 363 q 135 399 135 388 q 151 429 135 422 q 229 435 157 431 q 369 444 301 439 q 438 456 438 450 q 409 519 438 474 q 354 588 381 564 q 188 649 285 649 l 182 649 q 140 647 164 647 q 103 665 111 647 q 99 682 99 674 q 131 719 99 713 z "},"":{"ha":560,"x_min":76,"x_max":488,"o":"m 271 325 q 296 339 282 339 q 319 326 306 339 q 333 303 333 313 q 319 277 333 292 q 292 263 304 263 q 267 272 276 263 q 258 296 258 282 q 271 325 258 313 m 288 626 q 313 642 301 642 q 335 606 335 642 q 307 563 335 564 q 287 577 300 563 q 274 601 274 592 q 288 626 274 615 m 83 661 q 90 656 88 665 q 92 650 92 654 q 115 639 93 635 q 146 619 135 642 q 150 601 150 608 q 141 579 150 588 q 119 571 132 571 q 90 585 104 571 q 76 635 76 599 q 83 661 76 654 m 185 694 q 217 707 188 708 l 244 704 l 246 614 l 249 521 l 361 515 q 454 507 433 511 q 481 493 475 503 q 488 357 488 479 l 488 308 q 483 167 486 197 q 469 129 479 136 q 440 129 454 119 q 413 388 418 143 l 411 440 l 303 444 q 185 460 196 449 q 178 568 178 467 q 185 694 178 674 z "},"":{"ha":458,"x_min":74,"x_max":386,"o":"m 168 325 q 193 339 179 339 q 217 326 203 339 q 231 303 231 313 q 215 277 231 292 q 188 263 200 263 q 163 272 172 263 q 154 296 154 282 q 168 325 154 313 m 289 671 q 318 692 313 692 q 326 678 326 692 q 317 651 326 661 q 321 628 306 640 q 333 603 333 615 q 322 581 333 592 q 297 574 314 574 q 263 589 274 574 q 257 608 257 600 q 289 671 257 643 m 199 679 q 213 688 208 686 q 219 685 217 689 q 221 674 221 682 q 217 658 221 667 q 214 647 214 650 q 224 633 214 640 q 239 606 239 624 q 229 578 239 590 q 206 565 219 565 q 193 568 201 565 q 172 615 172 576 q 199 679 172 661 m 90 704 q 114 717 100 717 q 138 696 132 717 q 144 610 144 675 l 144 522 l 254 517 q 347 510 324 514 q 375 497 369 507 q 386 333 386 482 q 372 133 386 147 q 353 126 365 126 q 325 142 333 126 q 311 297 317 157 l 307 440 l 199 444 q 83 458 92 450 q 74 524 74 468 q 75 603 74 569 q 90 704 76 690 z "},"":{"ha":468,"x_min":72,"x_max":396,"o":"m 83 118 q 72 146 72 129 q 85 184 72 167 q 113 201 97 201 q 142 184 125 201 q 160 153 160 167 q 143 122 160 135 q 108 108 126 108 q 83 118 93 108 m 90 568 q 124 586 101 589 q 156 560 139 585 q 228 439 174 536 l 310 294 l 318 431 q 333 578 328 568 q 360 588 339 588 q 390 576 381 588 q 396 517 396 571 q 390 356 396 456 q 380 175 383 208 q 364 131 376 142 q 346 121 353 121 q 328 128 339 121 q 196 343 314 138 q 88 557 88 535 q 90 568 88 563 m 296 665 q 308 668 304 668 q 331 660 321 668 q 340 640 340 651 q 268 600 340 603 q 208 593 221 597 q 192 589 200 589 q 168 618 168 589 q 238 658 168 658 l 244 658 l 253 658 q 296 665 289 658 z "},"":{"ha":514,"x_min":75,"x_max":439,"o":"m 78 540 q 89 554 82 553 q 100 544 96 556 q 128 533 103 533 q 155 524 144 533 q 165 503 165 515 q 161 488 165 496 q 132 471 151 471 q 88 499 104 471 q 76 533 76 518 q 78 538 76 535 l 78 540 m 197 658 q 254 674 219 674 q 365 621 319 674 q 433 458 414 561 q 439 396 439 432 q 419 265 439 329 q 365 164 399 200 q 308 119 340 138 q 257 100 276 100 l 256 100 q 158 154 210 101 q 89 271 107 207 q 75 403 75 322 q 79 442 75 436 q 118 442 88 453 q 146 426 142 433 q 150 386 150 419 q 167 286 150 340 q 206 210 183 232 q 257 183 231 183 q 340 267 303 183 q 361 392 361 313 q 340 515 361 469 q 260 597 301 597 q 204 567 233 597 q 169 538 178 538 q 139 557 150 547 l 114 578 l 143 610 q 197 658 174 644 z "},"":{"ha":610,"x_min":72,"x_max":535,"o":"m 96 181 q 344 189 125 189 q 386 188 364 189 q 410 188 408 188 q 485 185 451 185 q 535 158 535 185 q 528 139 535 147 q 482 126 521 129 q 307 119 443 122 q 160 117 171 117 q 82 128 93 117 q 72 151 72 138 q 96 181 72 174 m 129 347 q 140 379 125 368 q 304 390 156 390 q 432 388 408 390 q 463 372 456 385 q 457 339 472 354 q 431 326 449 329 q 353 324 413 324 l 286 324 l 131 326 l 129 347 m 106 554 q 249 560 132 560 q 504 549 493 560 q 511 519 514 539 q 494 501 508 504 q 406 492 479 497 q 299 489 350 489 q 190 492 251 489 l 79 499 l 79 524 q 85 546 79 539 q 106 554 90 553 m 257 719 q 283 735 275 735 q 290 725 290 735 q 275 693 290 708 q 267 685 269 688 q 267 681 265 682 q 272 678 268 679 q 286 676 275 678 q 323 663 313 674 q 333 626 333 651 q 282 571 333 571 q 241 593 256 571 q 226 646 226 615 q 257 719 226 693 z "},"":{"ha":715,"x_min":74,"x_max":640,"o":"m 288 158 q 544 165 525 164 l 558 165 q 624 158 610 165 q 640 122 640 147 q 626 93 640 99 q 317 83 607 83 q 85 90 93 83 q 74 119 74 97 q 85 147 74 140 q 288 158 97 153 m 310 361 q 442 368 389 368 q 521 360 508 368 q 528 335 528 356 q 518 299 528 308 q 431 288 507 288 q 290 279 360 288 q 240 275 261 275 q 185 313 185 275 q 196 346 185 338 q 310 361 206 351 m 288 576 q 524 586 471 586 q 569 578 561 586 q 579 550 579 568 q 568 521 579 531 q 394 503 557 513 q 265 495 344 500 q 174 490 185 490 q 142 489 161 489 q 99 503 113 489 q 88 531 88 514 q 103 561 88 550 q 288 576 114 567 m 371 672 q 392 722 371 701 q 426 743 413 743 q 435 735 435 743 q 422 718 435 731 q 408 700 408 706 q 428 690 408 692 q 450 660 449 689 q 451 653 450 657 q 451 649 451 650 q 429 621 451 631 q 411 615 413 615 q 389 629 401 615 q 371 672 371 646 m 239 724 q 274 744 257 744 q 279 739 279 744 q 267 715 279 738 q 254 689 254 692 l 257 686 q 265 683 260 685 q 275 678 271 681 q 296 642 296 667 q 288 618 296 628 q 258 607 278 607 q 224 621 236 607 q 214 654 214 631 q 239 724 214 696 z "},"":{"ha":414,"x_min":76,"x_max":338,"o":"m 153 760 q 174 769 172 769 q 186 749 186 769 q 181 731 186 736 q 185 714 171 719 q 193 679 197 710 q 192 663 192 672 q 214 649 192 649 q 246 639 239 649 q 257 396 251 626 l 261 164 l 290 161 q 338 125 338 157 q 336 117 338 119 q 260 92 331 92 q 193 113 201 92 q 188 353 188 129 l 188 579 l 140 582 q 81 600 90 583 q 76 615 76 606 q 117 647 76 643 q 139 654 139 649 q 131 675 139 658 q 122 703 122 692 q 128 726 122 714 q 153 760 139 753 z "}}}
